# File created by Blade
# Date/Time:  Thu Jan 22 16:25:48 2015
# Frame Rate: 120.000 fps
#------------------------------------------------------
:FULLY-SPECIFIED
:DEGREES
284
root -1.041206 38.632303 11.103541 17.547901 13.068863 31.171816
RightUpLeg -13.638072 0.628363 -25.820358
RightLeg 17.135278 -0.000000 -0.000000
RightFoot -19.013305 -15.560210 11.673375
RightToeBase 8.811353 -0.000000 -0.000000
LeftUpLeg -4.261658 -19.775286 19.757163
LeftLeg 137.595907 -0.000000 -0.000000
LeftFoot 15.967487 1.551545 -18.087971
LeftToeBase 2.929818 -0.000000 -0.000000
Spine 9.791899 9.556667 -23.084836
RightShoulder -0.633414 -23.101511 -20.478131
RightArm 20.070920 -19.626217 54.024432
RightForeArm 13.116188 -0.000000 54.388913
RightHand 3.998960 -0.000000 -2.796034
RightHandThumb1 -24.326973 -0.000000 -32.862282
LeftShoulder -32.105819 37.177415 -17.259857
LeftArm 33.051921 -6.942168 -53.804226
LeftForeArm 31.546144 -0.000000 13.367787
LeftHand -7.183233 -0.000000 -31.396168
LeftHandThumb1 -26.253704 0.000000 33.147579
Head 8.925819 16.287281 -21.492029
285
root -1.048989 38.630118 11.106638 17.561211 12.902563 30.999121
RightUpLeg -13.777653 0.007481 -25.660985
RightLeg 17.059035 -0.000000 -0.000000
RightFoot -18.815643 -14.779100 11.789998
RightToeBase 9.206211 -0.000000 -0.000000
LeftUpLeg -3.842520 -19.923289 19.708888
LeftLeg 137.486997 -0.000000 -0.000000
LeftFoot 16.077105 1.227131 -17.806979
LeftToeBase 2.617378 -0.000000 -0.000000
Spine 9.762543 9.707302 -22.867135
RightShoulder -0.506092 -23.087805 -20.554807
RightArm 20.146611 -19.572044 53.951802
RightForeArm 13.080250 -0.000000 54.356187
RightHand 4.023766 -0.000000 -2.925346
RightHandThumb1 -24.326973 -0.000000 -32.862282
LeftShoulder -32.185195 37.227375 -17.351171
LeftArm 32.831862 -6.767427 -53.775904
LeftForeArm 30.968283 -0.000000 13.511324
LeftHand -7.013732 -0.000000 -31.482680
LeftHandThumb1 -26.253704 0.000000 33.147579
Head 8.936148 16.108770 -21.520758
286
root -1.060668 38.626058 11.106289 17.579821 12.738860 30.845721
RightUpLeg -13.917188 -0.639954 -25.492111
RightLeg 16.978283 -0.000000 -0.000000
RightFoot -18.849986 -13.934591 12.159141
RightToeBase 9.933358 -0.000000 -0.000000
LeftUpLeg -3.451736 -20.055872 19.656526
LeftLeg 137.371104 -0.000000 -0.000000
LeftFoot 16.140836 1.003950 -17.642683
LeftToeBase 2.381774 -0.000000 -0.000000
Spine 9.781412 9.878426 -22.683670
RightShoulder -0.441264 -23.049641 -20.609800
RightArm 20.282867 -19.571726 53.837449
RightForeArm 13.238912 -0.000000 54.298394
RightHand 4.038782 -0.000000 -3.075624
RightHandThumb1 -24.326973 -0.000000 -32.862282
LeftShoulder -32.337765 37.302248 -17.470644
LeftArm 32.714331 -6.615436 -53.776509
LeftForeArm 30.137053 -0.000000 13.678524
LeftHand -7.028535 -0.000000 -31.628379
LeftHandThumb1 -26.253704 0.000000 33.147579
Head 8.834978 15.845553 -21.547589
287
root -1.076719 38.621464 11.104017 17.624936 12.520365 30.612074
RightUpLeg -14.123334 -1.036146 -25.273714
RightLeg 16.867423 -0.000000 -0.000000
RightFoot -18.737209 -13.348298 12.319605
RightToeBase 10.267207 -0.000000 -0.000000
LeftUpLeg -3.076275 -19.965418 19.645934
LeftLeg 137.217869 -0.000000 -0.000000
LeftFoot 16.058375 1.177545 -17.451362
LeftToeBase 2.124085 -0.000000 -0.000000
Spine 9.712416 10.098816 -22.441324
RightShoulder -0.365418 -23.009482 -20.643562
RightArm 20.396271 -19.517909 53.688084
RightForeArm 13.197198 -0.000000 54.248480
RightHand 4.039509 -0.000000 -3.036519
RightHandThumb1 -24.326973 -0.000000 -32.862282
LeftShoulder -32.489068 37.376707 -17.613782
LeftArm 32.565995 -6.624712 -53.908360
LeftForeArm 29.127379 0.000000 13.877913
LeftHand -7.269520 -0.000000 -32.098140
LeftHandThumb1 -26.253704 0.000000 33.147579
Head 8.801764 15.624044 -21.556642
288
root -1.087171 38.620132 11.098874 17.706052 12.307400 30.429288
RightUpLeg -14.335834 -1.382203 -25.108637
RightLeg 16.747703 -0.000000 -0.000000
RightFoot -18.622394 -12.876205 12.448565
RightToeBase 10.496742 -0.000000 -0.000000
LeftUpLeg -2.745636 -20.035677 19.593908
LeftLeg 137.106520 -0.000000 -0.000000
LeftFoot 15.803212 1.083344 -17.886021
LeftToeBase 3.045255 -0.000000 -0.000000
Spine 9.641318 10.276861 -22.248519
RightShoulder -0.314215 -22.977210 -20.663380
RightArm 20.560438 -19.498981 53.487989
RightForeArm 13.107322 -0.000000 54.216610
RightHand 4.058092 0.000000 -3.024207
RightHandThumb1 -24.326973 -0.000000 -32.862282
LeftShoulder -32.650137 37.384443 -17.694356
LeftArm 32.375039 -6.663470 -54.140782
LeftForeArm 27.659920 -0.000000 14.050862
LeftHand -7.814815 -0.000000 -32.517366
LeftHandThumb1 -26.253704 0.000000 33.147579
Head 8.741696 15.393652 -21.556063
